<svg width="151" height="151" viewBox="0 0 151 151" fill="none" xmlns="http://www.w3.org/2000/svg">
<circle cx="75.5" cy="75.5" r="73" stroke="white" stroke-width="5"/>
<path d="M102.1 99V110H50.5V101.3L78.3 74.9C81.4333 71.9 83.5333 69.3 84.6 67.1C85.7333 64.8333 86.3 62.6 86.3 60.4C86.3 57.1333 85.2 54.6333 83 52.9C80.8 51.1667 77.5667 50.3 73.3 50.3C66.1667 50.3 60.7 52.7333 56.9 57.6L47.8 50.6C50.5333 46.9333 54.2 44.1 58.8 42.1C63.4667 40.0333 68.6667 39 74.4 39C82 39 88.0667 40.8 92.6 44.4C97.1333 48 99.4 52.9 99.4 59.1C99.4 62.9 98.6 66.4667 97 69.8C95.4 73.1333 92.3333 76.9333 87.8 81.2L69.1 99H102.1Z" fill="white"/>
</svg>
