<svg width="151" height="151" viewBox="0 0 151 151" fill="none" xmlns="http://www.w3.org/2000/svg">
<circle cx="75.5" cy="75.5" r="73" stroke="white" stroke-width="5"/>
<path d="M81.2 68.9C87.6667 69.7 92.6 71.9 96 75.5C99.4 79.1 101.1 83.6 101.1 89C101.1 93.0667 100.067 96.7667 98 100.1C95.9333 103.433 92.8 106.1 88.6 108.1C84.4667 110.033 79.4 111 73.4 111C68.4 111 63.5667 110.3 58.9 108.9C54.3 107.433 50.3667 105.433 47.1 102.9L52.7 92.8C55.2333 94.9333 58.3 96.6333 61.9 97.9C65.5667 99.1 69.3333 99.7 73.2 99.7C77.8 99.7 81.4 98.7667 84 96.9C86.6667 94.9667 88 92.3667 88 89.1C88 85.8333 86.7333 83.3 84.2 81.5C81.7333 79.6333 77.9333 78.7 72.8 78.7H66.4V69.8L82.3 50.9H50.5V40H98.2V48.7L81.2 68.9Z" fill="white"/>
</svg>
