<svg width="20" height="20" viewBox="0 0 23 23" fill="none" xmlns="http://www.w3.org/2000/svg">
<path d="M21.6583 23C18.9963 23 16.3611 22.425 13.7527 21.275C11.1444 20.125 8.77493 18.4852 6.64444 16.3556C4.51481 14.2259 2.875 11.862 1.725 9.26389C0.575 6.66574 0 4.025 0 1.34167V0H7.53889L8.72083 6.42083L5.07917 10.0944C5.54769 10.925 6.06944 11.713 6.64444 12.4583C7.21944 13.2037 7.83704 13.8958 8.49722 14.5347C9.11481 15.1523 9.79119 15.7435 10.5263 16.3083C11.2615 16.8731 12.0546 17.3999 12.9056 17.8889L16.6111 14.1833L23 15.4931V23H21.6583Z" fill="#F24E1E"/>
</svg>
