<svg width="65" height="14" viewBox="0 0 65 14" fill="none" xmlns="http://www.w3.org/2000/svg">
<path d="M7 0L9.23006 3.93059L13.6574 4.83688L10.6083 8.17241L11.1145 12.6631L7 10.794L2.8855 12.6631L3.39169 8.17241L0.342604 4.83688L4.76994 3.93059L7 0Z" fill="#F24E1E"/>
<path d="M58 0L60.2301 3.93059L64.6574 4.83688L61.6083 8.17241L62.1145 12.6631L58 10.794L53.8855 12.6631L54.3917 8.17241L51.3426 4.83688L55.7699 3.93059L58 0Z" fill="#F24E1E"/>
<path d="M41 0L43.2301 3.93059L47.6574 4.83688L44.6083 8.17241L45.1145 12.6631L41 10.794L36.8855 12.6631L37.3917 8.17241L34.3426 4.83688L38.7699 3.93059L41 0Z" fill="#F24E1E"/>
<path d="M24 0L26.2301 3.93059L30.6574 4.83688L27.6083 8.17241L28.1145 12.6631L24 10.794L19.8855 12.6631L20.3917 8.17241L17.3426 4.83688L21.7699 3.93059L24 0Z" fill="#F24E1E"/>
</svg>
